<mxfile host="app.diagrams.net" agent="Mozilla/5.0 (Macintosh; Intel Mac OS X 10_15_7) AppleWebKit/605.1.15 (KHTML, like Gecko) Version/18.4 Safari/605.1.15" version="27.0.1">
  <diagram name="Seite-1" id="nA78vQb2meJiE4KsKEJ2">
    <mxGraphModel dx="946" dy="629" grid="1" gridSize="10" guides="1" tooltips="1" connect="1" arrows="1" fold="1" page="1" pageScale="1" pageWidth="827" pageHeight="1169" math="0" shadow="0">
      <root>
        <mxCell id="0" />
        <mxCell id="1" parent="0" />
        <mxCell id="zO_qhvo5qTCz1RgeJ2uV-1" value="" style="rounded=0;whiteSpace=wrap;html=1;" vertex="1" parent="1">
          <mxGeometry x="260" y="40" width="240" height="920" as="geometry" />
        </mxCell>
        <mxCell id="zO_qhvo5qTCz1RgeJ2uV-7" style="edgeStyle=orthogonalEdgeStyle;rounded=0;orthogonalLoop=1;jettySize=auto;html=1;" edge="1" parent="1" source="zO_qhvo5qTCz1RgeJ2uV-2" target="zO_qhvo5qTCz1RgeJ2uV-6">
          <mxGeometry relative="1" as="geometry">
            <mxPoint x="150" y="190" as="sourcePoint" />
            <Array as="points">
              <mxPoint x="190" y="260" />
              <mxPoint x="190" y="150" />
            </Array>
          </mxGeometry>
        </mxCell>
        <mxCell id="zO_qhvo5qTCz1RgeJ2uV-13" style="edgeStyle=orthogonalEdgeStyle;rounded=0;orthogonalLoop=1;jettySize=auto;html=1;" edge="1" parent="1" source="zO_qhvo5qTCz1RgeJ2uV-2" target="zO_qhvo5qTCz1RgeJ2uV-9">
          <mxGeometry relative="1" as="geometry">
            <Array as="points">
              <mxPoint x="170" y="280" />
              <mxPoint x="170" y="280" />
            </Array>
          </mxGeometry>
        </mxCell>
        <mxCell id="zO_qhvo5qTCz1RgeJ2uV-14" style="edgeStyle=orthogonalEdgeStyle;rounded=0;orthogonalLoop=1;jettySize=auto;html=1;entryX=0;entryY=0.5;entryDx=0;entryDy=0;" edge="1" parent="1" source="zO_qhvo5qTCz1RgeJ2uV-2" target="zO_qhvo5qTCz1RgeJ2uV-10">
          <mxGeometry relative="1" as="geometry">
            <Array as="points">
              <mxPoint x="95" y="390" />
            </Array>
          </mxGeometry>
        </mxCell>
        <mxCell id="zO_qhvo5qTCz1RgeJ2uV-31" style="edgeStyle=orthogonalEdgeStyle;rounded=0;orthogonalLoop=1;jettySize=auto;html=1;entryX=0;entryY=0.5;entryDx=0;entryDy=0;" edge="1" parent="1" source="zO_qhvo5qTCz1RgeJ2uV-2" target="zO_qhvo5qTCz1RgeJ2uV-20">
          <mxGeometry relative="1" as="geometry">
            <Array as="points">
              <mxPoint x="95" y="500" />
            </Array>
          </mxGeometry>
        </mxCell>
        <mxCell id="zO_qhvo5qTCz1RgeJ2uV-2" value="Customer" style="shape=umlActor;verticalLabelPosition=bottom;verticalAlign=top;html=1;outlineConnect=0;" vertex="1" parent="1">
          <mxGeometry x="80" y="230" width="30" height="60" as="geometry" />
        </mxCell>
        <mxCell id="zO_qhvo5qTCz1RgeJ2uV-5" value="Keba Portal" style="text;html=1;align=center;verticalAlign=middle;whiteSpace=wrap;rounded=0;" vertex="1" parent="1">
          <mxGeometry x="450" y="80" width="80" height="30" as="geometry" />
        </mxCell>
        <mxCell id="zO_qhvo5qTCz1RgeJ2uV-6" value="create/update tariff pricing informations" style="ellipse;whiteSpace=wrap;html=1;" vertex="1" parent="1">
          <mxGeometry x="320" y="110" width="120" height="80" as="geometry" />
        </mxCell>
        <mxCell id="zO_qhvo5qTCz1RgeJ2uV-9" value="Choose charging strategy" style="ellipse;whiteSpace=wrap;html=1;" vertex="1" parent="1">
          <mxGeometry x="320" y="240" width="120" height="80" as="geometry" />
        </mxCell>
        <mxCell id="zO_qhvo5qTCz1RgeJ2uV-10" value="Choose charging strategy" style="ellipse;whiteSpace=wrap;html=1;" vertex="1" parent="1">
          <mxGeometry x="320" y="350" width="120" height="80" as="geometry" />
        </mxCell>
        <mxCell id="zO_qhvo5qTCz1RgeJ2uV-23" style="edgeStyle=orthogonalEdgeStyle;rounded=0;orthogonalLoop=1;jettySize=auto;html=1;entryX=0;entryY=0.5;entryDx=0;entryDy=0;" edge="1" parent="1" source="zO_qhvo5qTCz1RgeJ2uV-16" target="zO_qhvo5qTCz1RgeJ2uV-17">
          <mxGeometry relative="1" as="geometry" />
        </mxCell>
        <mxCell id="zO_qhvo5qTCz1RgeJ2uV-24" style="edgeStyle=orthogonalEdgeStyle;rounded=0;orthogonalLoop=1;jettySize=auto;html=1;entryX=0;entryY=0.5;entryDx=0;entryDy=0;" edge="1" parent="1" source="zO_qhvo5qTCz1RgeJ2uV-16" target="zO_qhvo5qTCz1RgeJ2uV-18">
          <mxGeometry relative="1" as="geometry" />
        </mxCell>
        <mxCell id="zO_qhvo5qTCz1RgeJ2uV-25" style="edgeStyle=orthogonalEdgeStyle;rounded=0;orthogonalLoop=1;jettySize=auto;html=1;entryX=0;entryY=0.5;entryDx=0;entryDy=0;" edge="1" parent="1" source="zO_qhvo5qTCz1RgeJ2uV-16" target="zO_qhvo5qTCz1RgeJ2uV-19">
          <mxGeometry relative="1" as="geometry" />
        </mxCell>
        <mxCell id="zO_qhvo5qTCz1RgeJ2uV-16" value="KEBA" style="shape=umlActor;verticalLabelPosition=bottom;verticalAlign=top;html=1;outlineConnect=0;" vertex="1" parent="1">
          <mxGeometry x="70" y="630" width="30" height="60" as="geometry" />
        </mxCell>
        <mxCell id="zO_qhvo5qTCz1RgeJ2uV-17" value="Provide different charging strategies for customers" style="ellipse;whiteSpace=wrap;html=1;" vertex="1" parent="1">
          <mxGeometry x="320" y="570" width="120" height="80" as="geometry" />
        </mxCell>
        <mxCell id="zO_qhvo5qTCz1RgeJ2uV-18" value="Provide possibility to add tariff pricing informations" style="ellipse;whiteSpace=wrap;html=1;" vertex="1" parent="1">
          <mxGeometry x="320" y="680" width="120" height="80" as="geometry" />
        </mxCell>
        <mxCell id="zO_qhvo5qTCz1RgeJ2uV-19" value="Access EPEX Day Ahead Spot price data for calculation" style="ellipse;whiteSpace=wrap;html=1;" vertex="1" parent="1">
          <mxGeometry x="320" y="800" width="120" height="80" as="geometry" />
        </mxCell>
        <mxCell id="zO_qhvo5qTCz1RgeJ2uV-20" value="get feedback if my strategy is not possible or that no charging profile is created" style="ellipse;whiteSpace=wrap;html=1;" vertex="1" parent="1">
          <mxGeometry x="320" y="450" width="160" height="100" as="geometry" />
        </mxCell>
      </root>
    </mxGraphModel>
  </diagram>
</mxfile>
